<svg version="1.1" id="Layer_1" xmlns="http://www.w3.org/2000/svg" xmlns:xlink="http://www.w3.org/1999/xlink" viewBox="0 0 1417.3 1417.3" xml:space="preserve">
<style type="text/css">
	.st0{fill:#FFB700;stroke:#000000;stroke-width:20;stroke-miterlimit:10;}
	.st1{fill:#4871FF;}
	.st2{fill:#FFB700;stroke:#FFB700;stroke-width:7;stroke-miterlimit:10;}
	.st3{fill:#030302;}
</style>
<g>
	<circle class="st0" cx="714.2" cy="416" r="283.2"/>
	<path d="M710.7,697.2c42.5,110.1,116.7,192.2,220.2,248c52.4,28.2,108.3,45.8,167.3,52.7c27.3,3.2,55,2.8,82.4,4
		c-22.5,128.4-89.2,228.6-195.2,302.9c-63,44.2-133.2,71.8-209.4,80.7c-169.1,19.8-314-30.3-430-156.4
		c-57.3-62.3-93.1-136.2-108.1-219.9c-0.4-2.4-0.9-4.9-1.3-7.3c73.9,1.8,145.3-9.8,213.3-39.3c97.4-42.2,173.6-108.6,226.3-201
		c11.7-20.6,20.4-42.9,30.4-64.5C708,697.1,709.4,697.1,710.7,697.2z"/>
	<g>
		<circle class="st1" cx="708.6" cy="1099.6" r="48.4"/>
		<circle class="st1" cx="558.1" cy="1213.1" r="48.4"/>
		<circle class="st1" cx="858.9" cy="1213.1" r="48.4"/>
		<path class="st2" d="M572.1,1155.1l3-277.2c-9.3-0.1-18.6-0.2-27.9-0.3l-3,277.6c-26,6.3-45.4,29.8-45.4,57.8
			c0.1,32.7,26.7,59.3,59.5,59.3c32.7,0,59.3-26.6,59.3-59.4C617.6,1184.8,598.1,1161.3,572.1,1155.1z M558.2,1258.3
			c-25.1,0-45.5-20.3-45.5-45.4c0-25.1,20.4-45.5,45.4-45.5c25.1,0,45.4,20.4,45.5,45.4C603.6,1237.9,583.2,1258.3,558.2,1258.3z"/>
		<path class="st2" d="M873.1,1155.1l3-277.2c-9.3-0.1-18.6-0.2-27.9-0.3l-3,277.6c-26,6.3-45.4,29.8-45.4,57.8
			c0.1,32.7,26.7,59.3,59.5,59.3c32.7,0,59.3-26.6,59.3-59.4C918.6,1184.8,899.1,1161.3,873.1,1155.1z M859.2,1258.3
			c-25.1,0-45.5-20.3-45.5-45.4c0-25.1,20.4-45.5,45.4-45.5c25.1,0,45.4,20.4,45.5,45.4C904.6,1237.9,884.3,1258.3,859.2,1258.3z"/>
		<path class="st2" d="M686.5,1045L574.3,881c-7.8,5.2-15.5,10.3-23.3,15.4L663.6,1061c-17.7,20.1-20.1,50.5-4.1,73.4
			c18.8,26.7,55.9,33.3,82.7,14.4c26.8-18.8,33.3-55.9,14.5-82.7C740.8,1043.2,711.3,1035.2,686.5,1045z M734.3,1137.4
			c-20.6,14.4-48.9,9.4-63.3-11.1c-14.4-20.6-9.4-49,11.1-63.3c20.5-14.4,48.9-9.4,63.3,11.1
			C759.8,1094.7,754.8,1123.1,734.3,1137.4z"/>
		<path class="st2" d="M754.1,1060.1l115.7-161.5c-7.5-5.5-15-11.1-22.5-16.6l-116.1,162.1c-24.9-9.7-54.3-1.6-70.3,21.3
			c-18.7,26.8-12.1,63.9,14.7,82.7c26.8,18.8,63.9,12.2,82.7-14.6C774.3,1110.5,771.8,1080.1,754.1,1060.1z M683.6,1136.6
			c-20.6-14.4-25.6-42.7-11.2-63.3c14.4-20.6,42.8-25.6,63.3-11.2c20.6,14.3,25.5,42.8,11.2,63.3
			C732.5,1145.9,704.1,1151,683.6,1136.6z"/>
	</g>
	<path class="st1" d="M236.7,1001.9c-8.2-47.8-8.2-95.7-0.1-143.4c6.9-40.3,15.6-80.3,23.4-120.5c21.7-112.6,43.1-225.2,65-337.8
		c8.2-42.2,12.6-85.4,28.3-125.9c51.9-133.4,149-216.9,293.3-241.2c194.1-32.7,376,83.6,426.1,269.3c11.3,41.8,17.3,85,25.6,127.5
		c23.1,119.5,46,239,69.1,358.5c10,51.6,22.2,103,19.1,156c-1.1,19.2-3.7,38.3-5.7,57.5c-27.5-1.2-55.2-0.8-82.4-3.9
		c-58.9-6.7-114.9-23.9-167.3-51.4c-103.6-54.5-177.7-134.6-220.2-242c26.6-3.5,54.2-3.8,79.6-11.1
		c114.9-33.1,185.7-107.7,210.3-222.3c13.1-61.1,4-120.3-24.1-176.5c-0.3-1.2-0.5-2.4-1.1-3.5c-22.3-42.6-53.3-77.8-93.3-105.5
		c-42.5-29.5-90.1-45.3-141.7-50.3c-17.4,0-34.8,0-52.2,0c-12,1.6-24.3,2.2-36,4.9c-63.6,14.2-117.1,45.1-159.6,93.5
		c-19,21.6-35.3,45.1-45.5,72.1c-0.6,1-1.4,2-1.8,3.1c-20.8,49.5-28.6,100.8-18.9,153.5c21.3,115.5,89.8,192.4,203.9,229
		c24.3,7.8,50.9,8.9,76.4,13.1c-10.1,21-18.7,42.8-30.4,62.9c-52.6,90.2-128.8,155-226.3,196.2
		C381.9,992.3,310.5,1003.7,236.7,1001.9z"/>
	<g>
		<g>
			<path class="st3" d="M690.1,615.5c-20.1-3.6-40.4-13-53.6-24.5c-8.5-7.4-11.9-19.7-7.8-27.8c4.4-8.7,12.2-14,20.9-14
				c5.4,0,8.1,1.1,17.5,6.7c13.4,8,31.1,13.1,46.1,13.1c13.8,0,29.8-4.8,45.3-13.6c13.4-7.7,18.5-8.1,27.8-2.5
				c13.7,8.1,15.2,25.1,3.2,36.9c-11.6,11.8-35.2,22.4-56.8,25.9C720.7,617.7,701.7,617.5,690.1,615.5L690.1,615.5z"/>
			<g>
				<path class="st3" d="M641,419.7c0,25.4-20.7,45.9-46,45.9c-25.4,0-46-20.5-46-45.9c0-25.5,20.7-46,46-46
					C620.3,373.6,641,394.2,641,419.7L641,419.7z"/>
				<path class="st3" d="M875.7,419.6c0,25.4-20.7,45.9-46,45.9c-25.4,0-46-20.5-46-45.9c0-25.5,20.7-46,46-46
					C855,373.5,875.7,394.1,875.7,419.6L875.7,419.6z"/>
			</g>
		</g>
		<path d="M977.2,305.7c-27.8,9.8-56.7,12.7-85.9,12c-93.4-2.3-168.7-41.2-227-113.7c-1-1.2-1.9-2.5-2.9-3.7
			c-0.2-0.2-0.5-0.2-1.4-0.5C606.2,269,536,309.4,447.8,317c10.2-27.7,26.5-51.7,45.5-73.9c42.5-49.6,96-81.3,159.6-95.8
			c11.8-2.7,24-3.4,36-5c17.4,0,34.8,0,52.2,0c51.6,5.2,99.1,21.4,141.7,51.6c40,28.4,71,64.5,93.3,108.1
			C976.7,303.2,976.9,304.5,977.2,305.7z"/>
	</g>
</g>
</svg>